<svg id="Capa_1" data-name="Capa 1" xmlns="http://www.w3.org/2000/svg" viewBox="0 0 1999.53 1414"><defs><style>.cls-1{fill:none;}.cls-2{fill:#642680;}.cls-3{fill:#e87113;}.cls-4{fill:#e84f1b;}.cls-5{fill:#099540;}.cls-6{fill:#0370b6;}.cls-7{fill:#e1a3a2;}.cls-8{fill:#432918;}.cls-9{fill:#28285b;}.cls-10{fill:#2a327c;}.cls-11{fill:#1ca098;}.cls-12{fill:#bd1826;}.cls-13{fill:#8cbf48;}.cls-14{fill:#a2145b;}</style></defs><rect class="cls-1" width="1999.53" height="1414"/><g id="siete"><circle id="p71" class="cls-2" cx="1684.93" cy="1328.4" r="18.96"/><path id="p7" class="cls-3" d="M1600.68,1311.91c0,11.51-20.84,40.24-20.84,40.24s-20.85-28.73-20.85-40.24a20.85,20.85,0,1,1,41.69,0Z"/></g><g id="tres"><path id="p3" class="cls-3" d="M783,1203.54c0,11.25-20.36,39.3-20.36,39.3s-20.36-28-20.36-39.3a20.36,20.36,0,0,1,40.72,0Z"/></g><g id="seis"><circle id="p68" class="cls-4" cx="1551.81" cy="779.69" r="18.96"/><circle id="p67" class="cls-5" cx="1622.84" cy="542.86" r="18.96"/><circle id="p66" class="cls-6" cx="1583.14" cy="543.27" r="18.96"/><circle id="p65" class="cls-2" cx="1542.57" cy="545.13" r="18.96"/><circle id="p64" class="cls-7" cx="1451.23" cy="592.58" r="18.96"/><circle id="p63" class="cls-8" cx="1469.11" cy="532.48" r="18.96"/><circle id="p62" class="cls-4" cx="1450.2" cy="493.93" r="18.91"/><circle id="p61" class="cls-9" cx="1478.35" cy="448.36" r="18.91"/><path id="p6" class="cls-3" d="M1603.5,481.66c0,11.25-20.36,39.3-20.36,39.3s-20.36-28.05-20.36-39.3a20.36,20.36,0,1,1,40.72,0Z"/></g><g id="cinco"><circle id="p54" class="cls-10" cx="886.35" cy="193.49" r="12.12"/><circle id="p53" class="cls-11" cx="906.63" cy="168.17" r="11.35"/><circle id="p52" class="cls-12" cx="865.22" cy="146.86" r="10.68"/><circle id="p51" class="cls-13" cx="858.56" cy="103.11" r="12.11"/><path id="p5" class="cls-3" d="M1295.16,125.17c0,11.24-20.36,39.3-20.36,39.3s-20.36-28.06-20.36-39.3a20.36,20.36,0,1,1,40.72,0Z"/></g><g id="cuatro"><circle id="p42" class="cls-2" cx="874.47" cy="1197.48" r="18.54"/><circle id="p41" class="cls-7" cx="834.42" cy="1197.48" r="18.54"/><path id="p4" class="cls-3" d="M811.54,1214.73c0,10.54-19.09,36.83-19.09,36.83s-19.08-26.29-19.08-36.83a19.09,19.09,0,0,1,38.17,0Z"/></g><g id="dos"><circle id="p24" class="cls-6" cx="901.27" cy="902.9" r="18.54"/><circle id="p23" class="cls-9" cx="859.74" cy="902.9" r="18.54"/><circle id="p22" class="cls-2" cx="818.75" cy="903.15" r="18.54"/><circle id="p21" class="cls-7" cx="779.75" cy="903.15" r="18.54"/><path id="p2" class="cls-3" d="M853.55,836.87c0,11.25-20.36,39.3-20.36,39.3s-20.36-28-20.36-39.3a20.36,20.36,0,1,1,40.72,0Z"/></g><g id="uno"><circle id="p14" class="cls-14" cx="1006.32" cy="644.76" r="18.54"/><circle id="p13" class="cls-7" cx="968.11" cy="644.76" r="18.54"/><circle id="p12" class="cls-9" cx="897.63" cy="645.01" r="18.54"/><circle id="p11" class="cls-6" cx="859.62" cy="645.45" r="18.54"/><path id="p1" class="cls-3" d="M951.82,616.08c0,11.24-20.36,39.3-20.36,39.3s-20.37-28.06-20.37-39.3a20.37,20.37,0,1,1,40.73,0Z"/></g></svg>